#Comment line ignore any data following # character 
#Hierarchical Translation and Rotation (.htr) file 
[Header]	
#Header keywords are followed by a single value 
FileType HTR		#Single word string
DataType HTRS		#Translation followed by rotation and scale data
FileVersion 1		#integer
NumSegments 64		#integer
NumFrames 3		#integer
DataFrameRate 30		#integer, data frame rate in this file
EulerRotationOrder ZYX
CalibrationUnits mm
RotationUnits Degrees
GlobalAxisofGravity Y
BoneLengthAxis Y
ScaleFactor 1.00
[SegmentNames&Hierarchy]
#CHILD	PARENT
Pinger_Root GLOBAL
Pelvis Pinger_Root
L_Hip Pelvis
R_Hip Pelvis
Rear_Leg01 Pelvis
Spine1 Pelvis
L_Leg01 L_Hip
L_Leg02 L_Leg01
L_Leg03 L_Leg02
L_Foot L_Leg03
L_Toe1_01 L_Foot
L_Toe2_01 L_Foot
L_Toe3_01 L_Foot
planeAlignerLeft L_Foot
L_Toe1_02 L_Toe1_01
L_Toe1_03 L_Toe1_02
L_Toe2_02 L_Toe2_01
L_Toe2_03 L_Toe2_02
L_Toe3_02 L_Toe3_01
L_Toe3_03 L_Toe3_02
planeLockWeightLeft planeAlignerLeft
R_Leg01 R_Hip
R_Leg02 R_Leg01
R_Leg03 R_Leg02
R_Foot R_Leg03
planeAlignerRight R_Foot
R_Toe1_01 R_Foot
R_Toe2_01 R_Foot
R_Toe3_01 R_Foot
planeLockWeightRight planeAlignerRight
R_Toe1_02 R_Toe1_01
R_Toe1_03 R_Toe1_02
R_Toe2_02 R_Toe2_01
R_Toe2_03 R_Toe2_02
R_Toe3_02 R_Toe3_01
R_Toe3_03 R_Toe3_02
Rear_Leg02 Rear_Leg01
Rear_Leg03 Rear_Leg02
Rear_Leg04 Rear_Leg03
Rear_Foot Rear_Leg04
planeAlignerCenter Rear_Foot
Rear_Toe1_01 Rear_Foot
Rear_Toe2_01 Rear_Foot
Rear_Toe3_01 Rear_Foot
planeLockWeightCenter planeAlignerCenter
Rear_Toe1_02 Rear_Toe1_01
Rear_Toe1_03 Rear_Toe1_02
Rear_Toe2_02 Rear_Toe2_01
Rear_Toe2_03 Rear_Toe2_02
Rear_Toe3_02 Rear_Toe3_01
Rear_Toe3_03 Rear_Toe3_02
Back_Bone Spine1
Head Spine1
Motor_Bone Back_Bone
Ping_Mechanism Back_Bone
BN_LookIK Head
bottomMouth Head
L_Mouth01 Head
L_mouthFront Head
mouthGun Head
R_Mouth01 Head
R_mouthFront Head
TopMouth Head
weapon_bone Head
[BasePosition]
#SegmentName Tx, Ty, Tz, Rx, Ry, Rz, BoneLength
Pinger_Root 0.000000 0.000000 0.000000 -90.000000 0.000000 0.000000 10.000000 
Pelvis 0.000000 0.000000 0.000000 0.000000 0.000000 0.000000 10.000000 
L_Hip 0.000000 0.000000 0.000000 0.000000 0.000000 0.000000 10.000000 
R_Hip 0.000000 0.000000 0.000000 0.000000 0.000000 0.000000 10.000000 
Rear_Leg01 0.000000 0.000000 0.000000 0.000000 0.000000 0.000000 10.000000 
Spine1 0.000000 0.000000 0.000000 0.000000 0.000000 0.000000 10.000000 
L_Leg01 0.000000 0.000000 0.000000 0.000000 0.000000 0.000000 10.000000 
L_Leg02 0.000000 0.000000 0.000000 0.000000 0.000000 0.000000 10.000000 
L_Leg03 0.000000 0.000000 0.000000 0.000000 0.000000 0.000000 10.000000 
L_Foot 0.000000 0.000000 0.000000 0.000000 0.000000 0.000000 10.000000 
L_Toe1_01 0.000000 0.000000 0.000000 0.000000 0.000000 0.000000 10.000000 
L_Toe2_01 0.000000 0.000000 0.000000 0.000000 0.000000 0.000000 10.000000 
L_Toe3_01 0.000000 0.000000 0.000000 0.000000 0.000000 0.000000 10.000000 
planeAlignerLeft 0.000000 0.000000 0.000000 0.000000 0.000000 0.000000 10.000000 
L_Toe1_02 0.000000 0.000000 0.000000 0.000000 0.000000 0.000000 10.000000 
L_Toe1_03 0.000000 0.000000 0.000000 0.000000 0.000000 0.000000 10.000000 
L_Toe2_02 0.000000 0.000000 0.000000 0.000000 0.000000 0.000000 10.000000 
L_Toe2_03 0.000000 0.000000 0.000000 0.000000 0.000000 0.000000 10.000000 
L_Toe3_02 0.000000 0.000000 0.000000 0.000000 0.000000 0.000000 10.000000 
L_Toe3_03 0.000000 0.000000 0.000000 0.000000 0.000000 0.000000 10.000000 
planeLockWeightLeft 0.000000 0.000000 0.000000 0.000000 0.000000 0.000000 10.000000 
R_Leg01 0.000000 0.000000 0.000000 0.000000 0.000000 0.000000 10.000000 
R_Leg02 0.000000 0.000000 0.000000 0.000000 0.000000 0.000000 10.000000 
R_Leg03 0.000000 0.000000 0.000000 0.000000 0.000000 0.000000 10.000000 
R_Foot 0.000000 0.000000 0.000000 0.000000 0.000000 0.000000 10.000000 
planeAlignerRight 0.000000 0.000000 0.000000 0.000000 0.000000 0.000000 10.000000 
R_Toe1_01 0.000000 0.000000 0.000000 0.000000 0.000000 0.000000 10.000000 
R_Toe2_01 0.000000 0.000000 0.000000 0.000000 0.000000 0.000000 10.000000 
R_Toe3_01 0.000000 0.000000 0.000000 0.000000 0.000000 0.000000 10.000000 
planeLockWeightRight 0.000000 0.000000 0.000000 0.000000 0.000000 0.000000 10.000000 
R_Toe1_02 0.000000 0.000000 0.000000 0.000000 0.000000 0.000000 10.000000 
R_Toe1_03 0.000000 0.000000 0.000000 0.000000 0.000000 0.000000 10.000000 
R_Toe2_02 0.000000 0.000000 0.000000 0.000000 0.000000 0.000000 10.000000 
R_Toe2_03 0.000000 0.000000 0.000000 0.000000 0.000000 0.000000 10.000000 
R_Toe3_02 0.000000 0.000000 0.000000 0.000000 0.000000 0.000000 10.000000 
R_Toe3_03 0.000000 0.000000 0.000000 0.000000 0.000000 0.000000 10.000000 
Rear_Leg02 0.000000 0.000000 0.000000 0.000000 0.000000 0.000000 10.000000 
Rear_Leg03 0.000000 0.000000 0.000000 0.000000 0.000000 0.000000 10.000000 
Rear_Leg04 0.000000 0.000000 0.000000 0.000000 0.000000 0.000000 10.000000 
Rear_Foot 0.000000 0.000000 0.000000 0.000000 0.000000 0.000000 10.000000 
planeAlignerCenter 0.000000 0.000000 0.000000 0.000000 0.000000 0.000000 10.000000 
Rear_Toe1_01 0.000000 0.000000 0.000000 0.000000 0.000000 0.000000 10.000000 
Rear_Toe2_01 0.000000 0.000000 0.000000 0.000000 0.000000 0.000000 10.000000 
Rear_Toe3_01 0.000000 0.000000 0.000000 0.000000 0.000000 0.000000 10.000000 
planeLockWeightCenter 0.000000 0.000000 0.000000 0.000000 0.000000 0.000000 10.000000 
Rear_Toe1_02 0.000000 0.000000 0.000000 0.000000 0.000000 0.000000 10.000000 
Rear_Toe1_03 0.000000 0.000000 0.000000 0.000000 0.000000 0.000000 10.000000 
Rear_Toe2_02 0.000000 0.000000 0.000000 0.000000 0.000000 0.000000 10.000000 
Rear_Toe2_03 0.000000 0.000000 0.000000 0.000000 0.000000 0.000000 10.000000 
Rear_Toe3_02 0.000000 0.000000 0.000000 0.000000 0.000000 0.000000 10.000000 
Rear_Toe3_03 0.000000 0.000000 0.000000 0.000000 0.000000 0.000000 10.000000 
Back_Bone 0.000000 0.000000 0.000000 0.000000 0.000000 0.000000 10.000000 
Head 0.000000 0.000000 0.000000 0.000000 0.000000 0.000000 10.000000 
Motor_Bone 0.000000 0.000000 0.000000 0.000000 0.000000 0.000000 10.000000 
Ping_Mechanism 0.000000 0.000000 0.000000 0.000000 0.000000 0.000000 10.000000 
BN_LookIK 0.000000 0.000000 0.000000 0.000000 0.000000 0.000000 10.000000 
bottomMouth 0.000000 0.000000 0.000000 0.000000 0.000000 0.000000 10.000000 
L_Mouth01 0.000000 0.000000 0.000000 0.000000 0.000000 0.000000 10.000000 
L_mouthFront 0.000000 0.000000 0.000000 0.000000 0.000000 0.000000 10.000000 
mouthGun 0.000000 0.000000 0.000000 0.000000 0.000000 0.000000 10.000000 
R_Mouth01 0.000000 0.000000 0.000000 0.000000 0.000000 0.000000 10.000000 
R_mouthFront 0.000000 0.000000 0.000000 0.000000 0.000000 0.000000 10.000000 
TopMouth 0.000000 0.000000 0.000000 0.000000 0.000000 0.000000 10.000000 
weapon_bone 0.000000 0.000000 0.000000 0.000000 0.000000 0.000000 10.000000 
#Beginning of Data. Separated by tabs
#Fr	Tx	Ty	Tz	Rx	Ry	Rz	SF
[Pinger_Root]
29 0.000000 0.000000 0.000000 -0.000075 -0.000000 -0.000020 0.000000
30 0.000000 0.000000 0.000000 -0.000075 -0.000000 -0.000020 0.000000
31 0.000000 0.000000 0.000000 -0.000075 -0.000000 -0.000020 0.000000
[Pelvis]
29 79.005692 979.554016 4239.200195 -147.791779 -83.292557 140.509537 4351.618652
30 67.873764 1012.487061 4291.536133 -134.337173 -83.795853 126.796043 4409.877930
31 59.310719 1033.444946 4339.028320 -120.995232 -84.062447 113.311111 4460.795410
[L_Hip]
29 5.766392 125.831482 872.656799 160.158691 -45.484905 122.312202 881.701050
30 5.766392 125.831482 872.656799 160.158691 -45.484905 122.312202 881.701050
31 5.766392 125.831482 872.656799 160.158691 -45.484905 122.312202 881.701050
[R_Hip]
29 5.765438 125.836372 -872.654907 61.491024 63.483070 143.687927 881.699829
30 5.765438 125.836372 -872.654907 53.391644 60.330673 137.113144 881.699829
31 5.765438 125.836372 -872.654907 47.111649 57.161110 132.244904 881.699829
[Rear_Leg01]
29 -192.298416 -925.602966 -0.001907 167.529953 -0.102140 -144.933929 945.367432
30 -192.298416 -925.602966 -0.001907 168.289383 0.923026 -148.018784 945.367432
31 -192.298416 -925.602966 -0.001907 168.906708 1.770498 -151.104187 945.367432
[Spine1]
29 290.604584 5.007505 0.000477 7.999505 3.131164 18.884640 290.647736
30 290.604584 5.007505 0.000477 7.911147 2.163828 17.111311 290.647736
31 290.604584 5.007505 0.000477 7.793131 1.229841 15.815151 290.647736
[L_Leg01]
29 761.932007 -0.002384 -0.069261 30.692156 -11.361760 -7.356517 761.932068
30 761.932007 -0.002384 -0.069261 28.149719 -10.813849 -10.192595 761.932068
31 761.932007 -0.002384 -0.069261 26.184738 -10.569489 -13.041457 761.932068
[L_Leg02]
29 1441.140503 -0.000954 -0.000715 5.012726 0.541166 -136.922821 1441.140503
30 1441.140503 -0.000954 -0.000715 4.666212 0.451691 -133.432541 1441.140503
31 1441.140503 -0.000954 -0.000715 4.291785 0.348358 -129.781738 1441.140503
[L_Leg03]
29 1686.963989 -0.000715 -0.000954 -0.070118 0.035929 128.959457 1686.963989
30 1686.963989 -0.000715 -0.000954 -0.066998 0.034425 128.379868 1686.963989
31 1686.963989 -0.000715 -0.000954 -0.063862 0.032953 127.800255 1686.963989
[L_Foot]
29 3041.570068 -30.715107 11.297464 -0.014888 15.170049 54.274883 3041.746094
30 3041.570068 -30.715107 11.297464 0.858376 14.089103 54.268711 3041.746094
31 3041.570068 -30.715107 11.297464 1.507320 13.281301 53.912060 3041.746094
[L_Toe1_01]
29 -188.216690 -224.732346 -21.137953 93.850121 -7.234110 -173.081757 293.899567
30 -188.216690 -224.732346 -21.137953 93.811676 -7.116607 -172.746811 293.899567
31 -188.216690 -224.732346 -21.137953 93.773941 -6.998878 -172.412033 293.899567
[L_Toe2_01]
29 200.746536 -219.926590 148.838394 -90.060295 -26.676834 -52.322773 332.896027
30 200.746536 -219.926590 148.838394 -90.049324 -26.505377 -52.477844 332.896027
31 200.746536 -219.926590 148.838394 -90.038872 -26.333893 -52.632641 332.896027
[L_Toe3_01]
29 188.832520 -219.859131 -191.078659 -99.524948 13.444057 -66.820656 347.140900
30 188.832520 -219.859131 -191.078659 -99.632500 13.582917 -67.158783 347.140900
31 188.832520 -219.859131 -191.078659 -99.740936 13.721152 -67.497368 347.140900
[planeAlignerLeft]
29 0.812531 -811.448792 -0.314951 0.000000 -90.000000 -90.001900 811.449280
30 0.812531 -811.448792 -0.314951 0.000000 -90.000000 -90.001900 811.449280
31 0.812531 -811.448792 -0.314951 0.000000 -90.000000 -90.001900 811.449280
[L_Toe1_02]
29 413.761139 0.000477 0.000000 0.001384 -25.966787 0.001384 413.761139
30 413.761139 0.000477 0.000000 0.001384 -25.971399 0.001384 413.761139
31 413.761139 0.000477 0.000000 0.001384 -25.976019 0.001384 413.761139
[L_Toe1_03]
29 464.317322 0.000358 -0.000089 0.004000 55.875000 0.004000 464.317322
30 464.317322 0.000358 -0.000089 0.003943 55.366169 0.003943 464.317322
31 464.317322 0.000358 -0.000089 0.003854 54.539902 0.003854 464.317322
[L_Toe2_02]
29 342.235809 -0.000477 0.000238 0.001188 -71.857468 0.001188 342.235809
30 342.235809 -0.000477 0.000238 0.001188 -71.993637 0.001188 342.235809
31 342.235809 -0.000477 0.000238 0.001188 -72.129761 0.001188 342.235809
[L_Toe2_03]
29 420.210846 -0.000715 0.000000 0.022389 83.990479 0.022389 420.210846
30 420.210846 -0.000715 0.000000 0.023238 84.210197 0.023238 420.210846
31 420.210846 -0.000715 0.000000 0.025314 84.685410 0.025314 420.210846
[L_Toe3_02]
29 329.270111 0.000954 0.000000 0.001178 -80.558151 0.001178 329.270111
30 329.270111 0.000954 0.000000 0.001178 -80.523605 0.001178 329.270111
31 329.270111 0.000954 0.000000 0.001178 -80.489014 0.001178 329.270111
[L_Toe3_03]
29 439.137451 -0.001907 0.000954 -179.996124 78.292900 -179.992599 439.137451
30 439.137451 -0.001907 0.000954 -179.995865 78.797585 -179.992355 439.137451
31 439.137451 -0.001907 0.000954 -179.995834 78.855232 -179.992325 439.137451
[planeLockWeightLeft]
29 -0.000954 0.000238 -0.000305 -0.011826 -0.004376 0.005620 0.001029
30 -0.000954 0.000238 -0.000305 -0.011826 -0.004376 0.005620 0.001029
31 -0.000954 0.000238 -0.000305 -0.011826 -0.004376 0.005620 0.001029
[R_Leg01]
29 761.455627 -0.001907 -0.000358 105.596840 1.724255 53.006634 761.455688
30 761.455627 -0.001907 -0.000358 109.991180 2.200482 50.051991 761.455688
31 761.455627 -0.001907 -0.000358 113.920532 2.310294 47.157669 761.455688
[R_Leg02]
29 1441.140625 0.000000 -0.000238 -0.378236 0.133390 -75.993385 1441.140625
30 1441.140625 0.000000 -0.000238 -0.380587 0.126525 -78.066635 1441.140625
31 1441.140625 0.000000 -0.000238 -0.441372 0.103896 -81.855667 1441.140625
[R_Leg03]
29 1686.963989 0.000954 0.001431 0.048237 -0.023767 123.749031 1686.963989
30 1686.963989 0.000954 0.001431 0.049291 -0.026158 124.236908 1686.963989
31 1686.963989 0.000954 0.001431 0.055752 -0.028654 125.135887 1686.963989
[R_Foot]
29 3041.560059 -30.531288 -11.204481 0.454950 -24.482754 37.667370 3041.734131
30 3041.560059 -30.531288 -11.204481 1.104062 -24.559313 38.970867 3041.734131
31 3041.560059 -30.531288 -11.204481 1.594701 -24.631950 40.762653 3041.734131
[planeAlignerRight]
29 -0.635147 -812.270569 -0.364304 0.000000 -89.960434 -90.005180 812.270874
30 -0.635147 -812.270569 -0.364304 0.000000 -89.960434 -90.005180 812.270874
31 -0.635147 -812.270569 -0.364304 0.000000 -89.960434 -90.005180 812.270874
[R_Toe1_01]
29 -188.383347 -224.864899 21.052242 78.327148 0.810639 -176.062744 294.101532
30 -188.383347 -224.864899 21.052242 78.327164 0.810640 -176.062729 294.101532
31 -188.383347 -224.864899 21.052242 78.245155 1.206578 -173.791382 294.101532
[R_Toe2_01]
29 200.637817 -220.002121 -148.787384 -85.243942 46.454605 -40.773235 332.857574
30 200.637817 -220.002121 -148.787384 -85.243942 46.454597 -40.773239 332.857574
31 200.637817 -220.002121 -148.787384 -85.919090 45.562698 -42.136669 332.857574
[R_Toe3_01]
29 188.606735 -220.092957 191.126343 -77.777176 -16.659966 -55.221592 347.192566
30 188.606735 -220.092957 191.126343 -77.777176 -16.659962 -55.221600 347.192566
31 188.606735 -220.092957 191.126343 -77.393990 -16.138136 -56.423073 347.192566
[planeLockWeightRight]
29 -0.000477 0.000000 0.000000 -0.011823 -0.004379 -0.000027 0.000477
30 -0.000477 0.000000 0.000000 -0.011823 -0.004379 -0.000027 0.000477
31 -0.000477 0.000000 0.000000 -0.011823 -0.004379 -0.000027 0.000477
[R_Toe1_02]
29 413.762085 0.000477 -0.000119 0.001534 -9.817834 0.001534 413.762085
30 413.762085 0.000477 -0.000119 0.001534 -9.817671 0.001534 413.762085
31 413.762085 0.000477 -0.000119 0.001462 -16.774664 0.001462 413.762085
[R_Toe1_03]
29 464.317810 0.000000 0.001088 0.001388 9.994912 -0.003176 464.317810
30 464.317810 0.000000 0.001088 0.001388 9.994757 -0.003176 464.317810
31 464.317810 0.000000 0.001088 0.001155 19.096310 -0.003137 464.317810
[R_Toe2_02]
29 342.234741 -0.000954 0.000238 -0.002332 -79.833969 -0.002332 342.234741
30 342.234741 -0.000954 0.000238 -0.002332 -79.833969 -0.002332 342.234741
31 342.234741 -0.000954 0.000238 -0.002333 -79.608475 -0.002333 342.234741
[R_Toe2_03]
29 420.210846 0.000715 -0.000268 -179.995636 64.198975 -179.999222 420.210846
30 420.210846 0.000715 -0.000268 -179.995636 64.198990 -179.999222 420.210846
31 420.210846 0.000715 -0.000268 -179.995453 65.941360 -179.999039 420.210846
[R_Toe3_02]
29 329.270355 -0.000477 -0.000954 0.001175 -84.643753 0.001175 329.270355
30 329.270355 -0.000477 -0.000954 0.001175 -84.641785 0.001175 329.270355
31 329.270355 -0.000477 -0.000954 0.001175 -84.639809 0.001175 329.270355
[R_Toe3_03]
29 439.137939 0.000238 0.001431 -179.997650 45.533470 -179.990097 439.137939
30 439.137939 0.000238 0.001431 -179.997650 45.533474 -179.990097 439.137939
31 439.137939 0.000238 0.001431 -179.997269 47.914783 -179.989792 439.137939
[Rear_Leg02]
29 1162.777710 -0.029802 0.005960 0.112907 -0.245635 -109.383652 1162.777710
30 1162.777710 -0.029802 0.005960 0.456974 -1.654965 -112.693611 1162.777710
31 1162.777710 -0.029802 0.005960 0.653945 -2.738077 -114.297462 1162.777710
[Rear_Leg03]
29 607.192505 -0.013351 -0.073195 0.010606 -0.004864 65.626228 607.192505
30 607.192505 -0.013351 -0.073195 0.010608 -0.004860 65.587967 607.192505
31 607.192505 -0.013351 -0.073195 0.010632 -0.004808 65.018181 607.192505
[Rear_Leg04]
29 995.874512 -0.020504 -0.011921 -0.043363 -0.018483 60.891983 995.874573
30 995.874512 -0.020504 -0.011921 -0.043350 -0.018512 60.814510 995.874573
31 995.874512 -0.020504 -0.011921 -0.040700 -0.014663 59.648144 995.874573
[Rear_Foot]
29 3096.176270 -0.067472 -0.041425 -173.793777 87.663177 15.885705 3096.176270
30 3096.176270 -0.067472 -0.041425 -152.590652 86.782524 38.146641 3096.176270
31 3096.176270 -0.067472 -0.041425 -143.970093 85.946335 47.645267 3096.176270
[planeAlignerCenter]
29 0.350077 0.966311 -838.790894 0.000009 0.000003 -179.999985 838.791565
30 0.350077 0.966311 -838.790894 0.000009 0.000003 -179.999985 838.791565
31 0.350077 0.966311 -838.790894 0.000009 0.000003 -179.999985 838.791565
[Rear_Toe1_01]
29 0.653352 83.966492 -371.173737 0.309147 32.391476 90.497093 380.553192
30 0.653352 83.966492 -371.173737 0.297731 38.999466 90.435623 380.553192
31 0.653352 83.966492 -371.173737 0.296865 41.914101 90.416512 380.553192
[Rear_Toe2_01]
29 178.200760 -294.826019 -362.060547 -8.069154 27.600714 -66.811630 499.765686
30 178.200760 -294.826019 -362.060547 -7.489510 32.330368 -66.435211 499.765686
31 178.200760 -294.826019 -362.060547 -7.196267 34.406261 -66.271294 499.765686
[Rear_Toe3_01]
29 -153.359680 -308.780914 -362.060852 3.709456 26.909826 -112.338509 499.952881
30 -153.359680 -308.780914 -362.060852 3.436013 31.498899 -112.477203 499.952881
31 -153.359680 -308.780914 -362.060852 3.289418 33.518005 -112.540970 499.952881
[planeLockWeightCenter]
29 -0.000062 0.000238 0.000000 -0.011814 -0.004373 -0.000015 0.000246
30 -0.000062 0.000238 0.000000 -0.011814 -0.004373 -0.000015 0.000246
31 -0.000062 0.000238 0.000000 -0.011814 -0.004373 -0.000015 0.000246
[Rear_Toe1_02]
29 379.707825 0.194073 0.000477 0.001332 -33.588604 0.001332 379.707855
30 379.707825 0.194073 0.000477 -0.000322 -32.762936 0.006979 379.707855
31 379.707825 0.194073 0.000477 -0.000242 -31.676744 0.006934 379.707855
[Rear_Toe1_03]
29 500.129700 0.165701 0.000119 0.007103 70.978333 0.007103 500.129761
30 500.129700 0.165701 0.000119 -0.003952 58.794830 -0.000322 500.129761
31 500.129700 0.165701 0.000119 -0.000103 51.902481 0.007295 500.129761
[Rear_Toe2_02]
29 340.494507 0.000238 -0.000954 0.001188 -71.888016 0.001188 340.494507
30 340.494507 0.000238 -0.000954 0.001190 -70.719414 0.001190 340.494507
31 340.494507 0.000238 -0.000954 0.001192 -69.854523 0.001192 340.494507
[Rear_Toe2_03]
29 433.103577 0.000000 0.000238 0.007947 73.014069 0.007947 433.103546
30 433.103577 0.000000 0.000238 0.007164 71.142479 0.007164 433.103546
31 433.103577 0.000000 0.000238 0.006696 69.810326 0.006696 433.103546
[Rear_Toe3_02]
29 340.494141 -0.000358 -0.000477 0.001194 -69.018150 0.001194 340.494171
30 340.494141 -0.000358 -0.000477 0.004917 -68.146461 -0.004307 340.494171
31 340.494141 -0.000358 -0.000477 0.008288 -67.274704 -0.009460 340.494171
[Rear_Toe3_03]
29 433.103577 0.001431 -0.000238 0.006310 68.560692 0.006310 433.103546
30 433.103577 0.001431 -0.000238 0.005915 67.112434 0.005915 433.103546
31 433.103577 0.001431 -0.000238 -0.000972 65.958984 -0.004547 433.103546
[Back_Bone]
29 1312.175781 -701.934692 0.000954 0.209492 3.502784 -87.041122 1488.125488
30 1312.175781 -701.934692 0.000954 0.441836 3.069340 -87.419090 1488.125488
31 1312.175781 -701.934692 0.000954 0.676950 2.637436 -87.798683 1488.125488
[Head]
29 1406.159424 809.709290 0.001431 -0.634953 0.460801 17.674822 1622.625488
30 1406.159424 809.709290 0.001431 -0.655147 0.780858 16.429272 1622.625488
31 1406.159424 809.709290 0.001431 -0.658325 0.951822 15.058969 1622.625488
[Motor_Bone]
29 1158.364380 -417.834747 0.000477 -0.000105 0.000046 -105.985291 1231.419434
30 1158.364380 -417.834747 0.000477 -0.000105 0.000046 -105.985291 1231.419434
31 1158.364380 -417.834747 0.000477 -0.000105 0.000046 -105.985291 1231.419434
[Ping_Mechanism]
29 1232.817627 -438.193359 -24.767206 0.000103 -0.000053 82.120995 1308.612305
30 1237.739258 -440.629883 -17.197372 0.000103 -0.000053 82.120995 1313.943970
31 1241.212646 -441.948242 -10.232775 0.000103 -0.000053 82.120995 1317.585571
[BN_LookIK]
29 193.241119 1380.371704 -0.002861 0.000000 89.965736 -31.038179 1393.832153
30 193.241119 1380.371704 -0.002861 0.000000 89.965736 -31.038179 1393.832153
31 193.241119 1380.371704 -0.002861 0.000000 89.965736 -31.038179 1393.832153
[bottomMouth]
29 -435.092926 615.759399 -0.000954 -0.000022 0.000016 73.527184 753.966492
30 -435.092926 615.759399 -0.000954 -0.000022 0.000016 73.527184 753.966492
31 -435.092926 615.759399 -0.000954 -0.000022 0.000016 73.527184 753.966492
[L_Mouth01]
29 554.440979 7.658243 838.222046 150.204178 23.759130 109.605339 1005.027161
30 554.440979 7.658243 838.222046 150.204178 23.759130 109.605339 1005.027161
31 554.440979 7.658243 838.222046 150.204178 23.759130 109.605339 1005.027161
[L_mouthFront]
29 551.629089 934.514771 339.150421 0.000081 2.804060 79.119301 1136.941284
30 551.629089 934.514771 339.150421 0.000081 2.804060 79.119301 1136.941284
31 551.629089 934.514771 339.150421 0.000081 2.804060 79.119301 1136.941284
[mouthGun]
29 55.332661 1627.420898 0.000000 0.000023 0.000009 -11.038128 1628.361328
30 55.332661 1627.420898 0.000000 0.000023 0.000009 -11.038128 1628.361328
31 55.332661 1627.420898 0.000000 0.000023 0.000009 -11.038128 1628.361328
[R_Mouth01]
29 554.442383 7.659197 -838.223938 29.795891 -23.759109 109.605331 1005.029541
30 554.442383 7.659197 -838.223938 29.795891 -23.759109 109.605331 1005.029541
31 554.442383 7.659197 -838.223938 29.795891 -23.759109 109.605331 1005.029541
[R_mouthFront]
29 551.629089 934.514282 -339.151367 0.000029 -2.803930 79.119133 1136.941162
30 551.629089 934.514282 -339.151367 0.000029 -2.803930 79.119133 1136.941162
31 551.629089 934.514282 -339.151367 0.000029 -2.803930 79.119133 1136.941162
[TopMouth]
29 461.269867 -56.106091 -0.008583 -0.000059 -0.000268 92.025169 464.669525
30 461.269867 -56.106091 -0.008583 -0.000059 -0.000268 92.025169 464.669525
31 461.269867 -56.106091 -0.008583 -0.000059 -0.000268 92.025169 464.669525
[weapon_bone]
29 -987.239868 1448.372803 0.001431 0.000000 89.965736 -31.038221 1752.833740
30 -987.239868 1448.372803 0.001431 0.000000 89.965736 -31.038221 1752.833740
31 -987.239868 1448.372803 0.001431 0.000000 89.965736 -31.038221 1752.833740
